<?xml version="1.0" encoding="utf-8"?>
<!DOCTYPE svg PUBLIC "-//W3C//DTD SVG 1.1//EN" "http://www.w3.org/Graphics/SVG/1.1/DTD/svg11.dtd">
<svg version="1.1" id="Calque_1" xmlns="http://www.w3.org/2000/svg" xmlns:xlink="http://www.w3.org/1999/xlink" x="0px" y="0px" width="500px" height="125px" viewBox="0.5 500.5 500 125" enable-background="new 0.5 500.5 500 125" xml:space="preserve">
<g id="VeryFrenchTrip">
	<path d="M449.395,570.887c-2.11,0.037-4.021,0.381-5.731,1.037c-1.711,0.655-2.948,1.637-3.712,2.947v17.193h-8.733v-28.656h8.024
		v5.785c0.982-1.928,2.246-3.438,3.793-4.529c1.546-1.092,3.193-1.656,4.94-1.692c0.4,0,0.69,0,0.873,0s0.363,0.019,0.546,0.054
		V570.887z"/>
	<path d="M453.052,560.133v-7.914h8.733v7.914H453.052z M453.052,592.065v-28.656h8.733v28.656H453.052z"/>
	<path d="M485.911,592.611c-2.183,0-4.076-0.456-5.677-1.364c-1.602-0.91-2.838-2.184-3.712-3.82v16.266h-8.733v-40.283h7.588v4.64
		c1.055-1.638,2.374-2.911,3.957-3.821c1.583-0.908,3.466-1.364,5.649-1.364c1.929,0,3.702,0.382,5.322,1.146
		c1.618,0.766,3.02,1.812,4.202,3.14c1.183,1.329,2.11,2.893,2.784,4.694c0.673,1.801,1.011,3.738,1.011,5.813
		c0,2.147-0.311,4.131-0.929,5.951c-0.619,1.818-1.474,3.393-2.565,4.721s-2.402,2.375-3.93,3.139
		C489.349,592.229,487.694,592.611,485.911,592.611z M482.964,585.241c0.945,0,1.81-0.208,2.593-0.628
		c0.782-0.417,1.464-0.973,2.047-1.664c0.581-0.691,1.028-1.5,1.337-2.43c0.309-0.928,0.465-1.9,0.465-2.919
		c0-1.056-0.174-2.028-0.519-2.921c-0.348-0.891-0.819-1.664-1.419-2.32c-0.602-0.654-1.329-1.164-2.185-1.527
		c-0.854-0.364-1.773-0.547-2.756-0.547c-1.201,0-2.356,0.355-3.467,1.064c-1.109,0.709-1.956,1.666-2.538,2.865v5.896
		c0.582,1.455,1.465,2.674,2.647,3.656C480.351,584.75,481.617,585.241,482.964,585.241z"/>
	<path d="M430.781,561.17h-11.79v30.895h-8.951V561.17h-11.845v-7.859h32.586V561.17z"/>
	<path d="M398.74,592.065h-8.732v-16.103c0-1.855-0.364-3.22-1.091-4.093c-0.729-0.874-1.729-1.311-3.004-1.311
		c-0.51,0-1.064,0.118-1.663,0.355c-0.601,0.236-1.185,0.582-1.747,1.037c-0.563,0.455-1.084,0.991-1.557,1.609
		c-0.473,0.619-0.838,1.311-1.092,2.074v16.43h-8.732v-39.846h8.732v15.993c1.055-1.71,2.447-3.029,4.177-3.958
		c1.728-0.928,3.629-1.392,5.703-1.392c1.93,0,3.484,0.337,4.667,1.01c1.183,0.675,2.092,1.528,2.729,2.565
		c0.637,1.037,1.064,2.201,1.282,3.493c0.219,1.293,0.327,2.558,0.327,3.794V592.065z"/>
	<path d="M338.863,577.709c0-1.965,0.345-3.849,1.037-5.65c0.69-1.801,1.692-3.383,3.001-4.748c1.311-1.364,2.922-2.446,4.831-3.246
		c1.91-0.801,4.086-1.202,6.522-1.202c3.312,0,6.096,0.701,8.353,2.101c2.255,1.402,3.947,3.23,5.075,5.487l-8.515,2.565
		c-1.129-1.82-2.784-2.73-4.967-2.73c-1.821,0-3.339,0.675-4.559,2.021c-1.22,1.347-1.828,3.147-1.828,5.403
		c0,1.129,0.165,2.156,0.492,3.084c0.326,0.928,0.781,1.719,1.363,2.375c0.581,0.654,1.264,1.164,2.047,1.528
		c0.781,0.364,1.611,0.545,2.484,0.545c1.091,0,2.092-0.264,3.003-0.791c0.907-0.527,1.582-1.21,2.018-2.048l8.516,2.621
		c-1.055,2.221-2.737,4.039-5.049,5.459c-2.311,1.418-5.122,2.128-8.434,2.128c-2.402,0-4.558-0.409-6.468-1.228
		c-1.91-0.82-3.53-1.911-4.858-3.276c-1.328-1.364-2.338-2.946-3.028-4.748C339.208,581.558,338.863,579.675,338.863,577.709z"/>
	<path d="M335.369,592.065h-8.733v-16.103c0-1.892-0.354-3.265-1.064-4.12c-0.709-0.854-1.646-1.283-2.811-1.283
		c-0.619,0-1.237,0.128-1.855,0.382c-0.62,0.255-1.22,0.61-1.802,1.064c-0.582,0.456-1.101,0.993-1.556,1.61
		c-0.456,0.619-0.811,1.292-1.064,2.02v16.43h-8.733v-28.656h7.86v4.804c1.055-1.71,2.546-3.029,4.476-3.958
		c1.929-0.928,4.148-1.392,6.659-1.392c1.855,0,3.348,0.337,4.476,1.01c1.128,0.675,2.001,1.547,2.621,2.62
		c0.618,1.074,1.027,2.248,1.228,3.521c0.199,1.274,0.3,2.511,0.3,3.712V592.065z"/>
	<path d="M287.008,592.611c-2.402,0-4.558-0.392-6.468-1.173c-1.91-0.783-3.53-1.848-4.858-3.193s-2.338-2.902-3.029-4.668
		c-0.691-1.764-1.036-3.61-1.036-5.539c0-2.075,0.345-4.03,1.036-5.868c0.691-1.837,1.691-3.447,3.002-4.831
		c1.311-1.382,2.92-2.474,4.832-3.273c1.909-0.801,4.083-1.202,6.521-1.202c2.438,0,4.603,0.401,6.495,1.202
		c1.893,0.8,3.494,1.882,4.805,3.246c1.311,1.365,2.301,2.939,2.974,4.722c0.673,1.784,1.01,3.657,1.01,5.622
		c0,0.51-0.017,1.01-0.054,1.501s-0.091,0.92-0.163,1.284h-21.18c0.145,1.928,0.846,3.393,2.103,4.393
		c1.254,1.002,2.683,1.5,4.284,1.5c1.273,0,2.501-0.308,3.684-0.926c1.183-0.619,1.974-1.457,2.375-2.512l7.424,2.074
		c-1.128,2.257-2.875,4.094-5.24,5.514C293.158,591.901,290.319,592.611,287.008,592.611z M293.066,575.034
		c-0.182-1.819-0.837-3.256-1.965-4.312s-2.529-1.583-4.202-1.583c-1.712,0-3.121,0.537-4.23,1.61
		c-1.111,1.072-1.757,2.502-1.938,4.284H293.066z"/>
	<path d="M271.069,570.887c-2.111,0.037-4.021,0.381-5.731,1.037c-1.712,0.655-2.947,1.637-3.713,2.947v17.193h-8.732v-28.656h8.023
		v5.785c0.982-1.928,2.247-3.438,3.794-4.529c1.546-1.092,3.193-1.656,4.94-1.692c0.399,0,0.689,0,0.872,0s0.364,0.019,0.547,0.054
		V570.887z"/>
	<path d="M223.854,592.065v-38.754h26.309v7.859h-17.357v8.352h14.301v7.26h-14.301v15.283H223.854z"/>
	<path d="M193.615,596.377c0.728,0.254,1.41,0.438,2.047,0.545c0.636,0.109,1.209,0.166,1.72,0.166c1.055,0,1.873-0.365,2.456-1.094
		c0.582-0.728,1.11-2.038,1.583-3.93l-10.917-28.656h9.006l6.659,21.179l5.731-21.179h8.188l-10.917,33.296
		c-0.764,2.365-2.129,4.284-4.094,5.759s-4.294,2.211-6.986,2.211c-0.729,0-1.465-0.064-2.211-0.191
		c-0.746-0.127-1.501-0.336-2.265-0.627V596.377z"/>
	<path d="M188.048,570.887c-2.111,0.037-4.021,0.381-5.731,1.037c-1.711,0.655-2.948,1.637-3.712,2.947v17.193h-8.733v-28.656h8.024
		v5.785c0.982-1.928,2.247-3.438,3.793-4.529c1.546-1.092,3.193-1.656,4.939-1.692c0.4,0,0.691,0,0.874,0
		c0.182,0,0.364,0.019,0.546,0.054V570.887z"/>
	<path d="M150.604,592.611c-2.402,0-4.558-0.392-6.468-1.173c-1.91-0.783-3.53-1.848-4.858-3.193
		c-1.329-1.346-2.338-2.902-3.03-4.668c-0.691-1.764-1.037-3.61-1.037-5.539c0-2.075,0.345-4.03,1.037-5.868
		c0.691-1.837,1.692-3.447,3.002-4.831c1.31-1.382,2.92-2.474,4.831-3.273c1.91-0.801,4.084-1.202,6.522-1.202
		c2.438,0,4.603,0.401,6.496,1.202c1.892,0.8,3.493,1.882,4.803,3.246c1.31,1.365,2.301,2.939,2.975,4.722
		c0.673,1.784,1.009,3.657,1.009,5.622c0,0.51-0.019,1.01-0.055,1.501s-0.091,0.92-0.163,1.284H144.49
		c0.145,1.928,0.847,3.393,2.102,4.393c1.255,1.002,2.683,1.5,4.285,1.5c1.273,0,2.501-0.308,3.685-0.926
		c1.182-0.619,1.973-1.457,2.374-2.512l7.424,2.074c-1.128,2.257-2.875,4.094-5.24,5.514
		C156.753,591.901,153.915,592.611,150.604,592.611z M156.662,575.034c-0.182-1.819-0.837-3.256-1.965-4.312
		c-1.128-1.056-2.53-1.583-4.203-1.583c-1.711,0-3.121,0.537-4.23,1.61c-1.111,1.072-1.756,2.502-1.938,4.284H156.662z"/>
	<path d="M110.375,553.311l9.116,27.51l9.006-27.51h9.443l-14.683,38.754h-7.533l-14.847-38.754H110.375z"/>
</g>
<g id="Logo">
	<path d="M16.955,570.447c-0.812,2.702-3.659,4.235-6.36,3.424l-4.62-1.388c-2.702-0.811-4.234-3.657-3.424-6.359l7.015-23.373
		c0.811-2.701,3.658-4.234,6.36-3.424l4.62,1.387c2.702,0.812,4.234,3.658,3.423,6.36L16.955,570.447z"/>
	<path d="M79.226,570.447c0.811,2.702,3.658,4.235,6.36,3.424l4.62-1.388c2.702-0.811,4.234-3.657,3.424-6.359l-7.015-23.373
		c-0.812-2.701-3.66-4.234-6.36-3.424l-4.62,1.387c-2.702,0.812-4.234,3.658-3.424,6.36L79.226,570.447z"/>
	<path d="M76.535,547.235c0,3.263,0.567-24.119-28.374-24.119c-28.942,0-28.375,28.66-28.375,24.119
		c0-21,12.704-27.382,28.375-27.382C63.832,519.853,76.535,526.235,76.535,547.235"/>
	<path fill="#872C1B" d="M57.577,534.949l0.977,0.666c-0.049,0.17,0.042-0.157,0,0c1.412,1.015,2.867,2.258,4.349,3.789l2.547,0.664
		c9.795-13.414,4.3-16.482,4.3-16.482c-1.116-0.708-2.152-0.904-3.112-0.742c2.077-8.279-1.986-10.076-1.986-10.076
		c-2.262-1.152-4.182-0.954-5.811,0.07c-0.562-6.602-4.3-7.582-4.3-7.582c-13.379-4.287-12.696,23.762-12.563,27.189
		C44.086,531.653,50.166,530.126,57.577,534.949"/>
	<path fill="#FFFFFF" d="M47.92,621.84l0.243-0.004l0.245,0.004c1.488,0,14.751-0.289,23.287-10.225
		c5.887-6.857,8.34-16.973,7.283-30.072c-0.265-2.156-6.472-49.807-30.813-49.807c-24.392,0-30.547,47.621-30.813,49.806
		c-1.057,13.101,1.393,23.216,7.282,30.073C33.17,621.553,46.435,621.84,47.92,621.84"/>
	<path fill="#F9B967" d="M48.547,572.639c0,0-3.758,7.551-5.087,8.309c-1.327,0.76-7.107,1.699-7.107,1.699l4.704,7.959l7.491,6.578
		l4.434-3.443l7.543-11.094l-6.833-2.178L48.547,572.639z"/>
	<path fill="#F6A63B" d="M58.134,582.127c-1.455,5.959-6.874,10.894-9.585,13.047c-2.712-2.153-8.132-7.088-9.587-13.047
		l-1.645,1.244c1.792,8.194,11.232,14.535,11.232,14.535s9.439-6.341,11.229-14.535L58.134,582.127z"/>
	<path fill="#ABABAC" d="M74.74,580.2c-0.004,0.018-0.011,0.106-0.025,0.233l0.021-0.305c0,0-0.81,10.314-5.673,19.85
		c-0.912,1.666-8.028,13.93-20.607,15.658C51.447,615.615,77.411,614.43,74.74,580.2"/>
	<path fill="#FFFFFF" d="M53.245,505.061c0.042-0.013,0.018-0.006-0.004-0.001c-0.97-0.198-1.614-0.271-2.431-0.128
		c-0.071,0.008-0.134,0.008-0.207,0.019l-0.015,0.024c-9.942,2.1-8.596,27.814-8.596,27.814h3.06c0,0-0.661-12.609,2.353-20.898
		c0.606-1.496,3.516-7.564,9.189-2.843C56.595,509.048,56.199,505.885,53.245,505.061"/>
	<path fill="#FFFFFF" d="M66.094,520.047c0,0,1.765-7.456-4.832-7.947l-2.442,0.455c0,0,0.452,6.212-2.889,12.064
		c0,0,4.261-4.115,5.456-8.957h0.015c0,0,0.257-1.926,2.183-0.863C63.586,514.799,66.402,516.298,66.094,520.047"/>
	<path fill="#FFFFFF" d="M67.22,523.114c0,0-1.885,3.766-3.095,6.316c0,0,2.118-1.574,3.662-4.246c0,0,1.851-0.271,2.524,2.491
		C70.311,527.675,71.121,523.385,67.22,523.114"/>
	<path fill="#100701" d="M42.289,584.415c0,0,3.409,0.878,3.254,4.806C45.543,589.221,47.455,584.572,42.289,584.415"/>
	<path fill="#100701" d="M54.807,584.415c-5.167,0.156-3.254,4.806-3.254,4.806C51.396,585.293,54.807,584.415,54.807,584.415"/>
	<path fill="#100701" d="M59.778,581.947c-5.227,0-9.48-4.253-9.48-9.479c0-5.229,4.253-9.482,9.48-9.482
		c5.228,0,9.48,4.254,9.48,9.482C69.258,577.694,65.006,581.947,59.778,581.947 M27.836,572.467c0-5.229,4.251-9.482,9.479-9.482
		c5.23,0,9.482,4.254,9.482,9.482c0,5.227-4.252,9.479-9.482,9.479C32.088,581.947,27.836,577.694,27.836,572.467 M59.778,561.24
		c-6.19,0-11.226,5.035-11.226,11.227c0,6.096,4.887,11.062,10.948,11.21c-3.203,7.429-8.481,11.31-10.953,12.793
		c-2.475-1.483-7.749-5.364-10.954-12.793c6.063-0.148,10.949-5.114,10.949-11.21c0-6.191-5.036-11.227-11.227-11.227
		c-6.188,0-11.224,5.035-11.224,11.227c0,5.622,4.161,10.279,9.562,11.086c4.091,11.071,12.893,15.009,12.893,15.009
		s8.803-3.938,12.892-15.009c5.402-0.807,9.563-5.464,9.563-11.086C71.002,566.276,65.967,561.24,59.778,561.24"/>
	<path fill="#100701" d="M38.865,572.758c-0.889,0-1.608-0.72-1.608-1.607c0-0.529,0.259-0.993,0.651-1.287
		c-0.191-0.041-0.389-0.063-0.592-0.063c-1.566,0-2.837,1.271-2.837,2.839c0,1.566,1.271,2.839,2.837,2.839
		c1.57,0,2.84-1.272,2.84-2.839c0-0.164-0.021-0.324-0.048-0.481C39.813,572.522,39.369,572.758,38.865,572.758"/>
	<path fill="#100701" d="M61.3,572.758c-0.887,0-1.606-0.72-1.606-1.607c0-0.529,0.259-0.994,0.652-1.287
		c-0.19-0.041-0.39-0.063-0.592-0.063c-1.567,0-2.838,1.271-2.838,2.839c0,1.566,1.271,2.839,2.838,2.839
		c1.569,0,2.838-1.272,2.838-2.839c0-0.164-0.021-0.322-0.048-0.479C62.249,572.522,61.804,572.758,61.3,572.758"/>
	<path d="M48.165,619.897c0,0-32.689,0.982-29.491-39.41c0,0,5.15-46.665,29.491-46.665c24.337,0,29.491,46.665,29.491,46.665
		C80.853,620.879,48.165,619.897,48.165,619.897 M48.86,507.163c1.452-1.116,3.18-1.333,5.328-0.646
		c0.056,0.017,1.651,0.634,2.554,2.866c1.286,3.182,1.387,5.908-0.811,15.236c2.655-4.281,4.163-7.84,4.322-11.057
		c1.16-0.462,2.412-0.337,3.842,0.391c0.042,0.02,1.292,0.767,1.703,2.211c0.632,2.227,0.618,4.689-1.673,13.266
		c1.235-1.85,2.337-3.604,3.13-5.391c0.643-0.086,1.35-0.014,1.985,0.502c0.007,0.002,0.673,0.537,0.899,1.582
		c0.352,1.604,0.698,5.658-4.98,13.348c-4.36-5.337-9.926-8.992-16.995-8.992c-1.729,0-3.368,0.224-4.923,0.633
		C43.103,524.516,43.863,511.015,48.86,507.163 M79.948,580.77c0,0-2.769-25.055-13.622-39.796c4.815-6.233,6.884-11.8,6.101-15.374
		c-0.488-2.234-1.88-3.068-1.974-3.117c-0.767-0.487-1.546-0.783-2.325-0.917c0.499-1.948,0.557-3.993-0.055-6.286
		c-0.675-2.531-2.689-3.617-2.826-3.676c-1.812-0.922-3.551-1.155-5.194-0.718c-0.226-1.093-0.623-2.156-1.222-3.206
		c-1.66-2.903-3.715-3.627-3.89-3.669c-2.942-0.943-5.526-0.579-7.678,1.081c-6.867,5.293-6.74,22.771-6.611,26.905
		c-19.808,8.386-24.271,48.772-24.271,48.772c-3.445,43.529,31.785,42.471,31.785,42.471S83.394,624.299,79.948,580.77"/>
</g>
</svg>
