<?xml version="1.0" encoding="UTF-8" standalone="no"?><!DOCTYPE svg PUBLIC "-//W3C//DTD SVG 1.1//EN" "http://www.w3.org/Graphics/SVG/1.1/DTD/svg11.dtd"><svg width="100%" height="100%" viewBox="0 0 749 181" version="1.1" xmlns="http://www.w3.org/2000/svg" xmlns:xlink="http://www.w3.org/1999/xlink" xml:space="preserve" style="fill-rule:evenodd;clip-rule:evenodd;stroke-linejoin:round;stroke-miterlimit:1.41421;"><g id="Logo-VFT--entete-"><g id="Typo"><g transform="matrix(0.411856,0,0,0.411856,-134.99,-567.109)"><text x="689.433px" y="1701.47px" style="font-family:'Raleway-ExtraBold', 'Raleway', sans-serif;font-weight:800;font-size:200px;">V</text><text x="809.833px" y="1701.47px" style="font-family:'Raleway-ExtraBold', 'Raleway', sans-serif;font-weight:800;font-size:200px;">e</text><text x="930.633px" y="1701.47px" style="font-family:'Raleway-ExtraBold', 'Raleway', sans-serif;font-weight:800;font-size:200px;">r</text><text x="1016.83px" y="1701.47px" style="font-family:'Raleway-ExtraBold', 'Raleway', sans-serif;font-weight:800;font-size:200px;">y</text><text x="1125.83px" y="1701.47px" style="font-family:'Raleway-ExtraBold', 'Raleway', sans-serif;font-weight:800;font-size:200px;">F</text><text x="1234.83px" y="1701.47px" style="font-family:'Raleway-ExtraBold', 'Raleway', sans-serif;font-weight:800;font-size:200px;">re</text><text x="1435.83px" y="1701.47px" style="font-family:'Raleway-ExtraBold', 'Raleway', sans-serif;font-weight:800;font-size:200px;">n<tspan x="1556.03px " y="1701.47px ">c</tspan></text><text x="1668.03px" y="1701.47px" style="font-family:'Raleway-ExtraBold', 'Raleway', sans-serif;font-weight:800;font-size:200px;">h</text><text x="1775.83px" y="1701.47px" style="font-family:'Raleway-ExtraBold', 'Raleway', sans-serif;font-weight:800;font-size:200px;">T</text><text x="1888.23px" y="1701.47px" style="font-family:'Raleway-ExtraBold', 'Raleway', sans-serif;font-weight:800;font-size:200px;">rip</text></g></g><g id="visage"><path d="M22.064,101.027c-1.224,4.078 -5.521,6.391 -9.598,5.167l-6.972,-2.093c-4.077,-1.223 -6.39,-5.52 -5.167,-9.598l10.586,-35.271c1.224,-4.076 5.521,-6.39 9.598,-5.166l6.972,2.092c4.077,1.224 6.39,5.521 5.166,9.598l-10.585,35.271Z" style="fill:#100701;fill-rule:nonzero;"/><path d="M116.036,101.027c1.224,4.078 5.521,6.391 9.598,5.167l6.972,-2.093c4.077,-1.223 6.39,-5.52 5.167,-9.598l-10.586,-35.271c-1.224,-4.076 -5.521,-6.39 -9.598,-5.166l-6.972,2.092c-4.077,1.224 -6.39,5.521 -5.166,9.598l10.585,35.271Z" style="fill:#100701;fill-rule:nonzero;"/><path d="M111.977,65.999c0,4.924 0.856,-36.397 -42.819,-36.397c-43.677,0 -42.821,43.248 -42.821,36.397c0,-31.689 19.171,-41.321 42.821,-41.321c23.648,0 42.819,9.632 42.819,41.321" style="fill:#100701;fill-rule:nonzero;"/><path d="M83.367,47.46l1.474,1.006c-0.073,0.255 0.065,-0.239 0,0c2.132,1.53 4.327,3.406 6.563,5.716l3.844,1.003c14.782,-20.242 6.49,-24.873 6.49,-24.873c-1.684,-1.068 -3.248,-1.365 -4.696,-1.122c3.134,-12.493 -2.997,-15.203 -2.997,-15.203c-3.415,-1.74 -6.311,-1.441 -8.769,0.105c-0.848,-9.962 -6.49,-11.442 -6.49,-11.442c-20.19,-6.47 -19.159,35.858 -18.959,41.03c3.181,-1.196 12.356,-3.498 23.54,3.78" style="fill:#872c1b;fill-rule:nonzero;"/><path d="M68.793,178.584l0.368,-0.004l0.37,0.004c2.245,0 22.26,-0.436 35.141,-15.429c8.884,-10.348 12.587,-25.612 10.991,-45.382c-0.4,-3.255 -9.766,-75.162 -46.499,-75.162c-36.81,0 -46.099,71.865 -46.5,75.16c-1.595,19.77 2.103,35.036 10.99,45.384c12.88,14.994 32.898,15.429 35.139,15.429" style="fill:#fff;fill-rule:nonzero;"/><path d="M69.74,104.336c0,0 -5.672,11.395 -7.677,12.537c-2.003,1.147 -10.726,2.567 -10.726,2.567l7.098,12.008l11.305,9.928l6.692,-5.195l11.382,-16.741l-10.311,-3.288l-7.763,-11.816Z" style="fill:#f9b967;fill-rule:nonzero;"/><path d="M84.207,118.655c-2.196,8.991 -10.374,16.439 -14.466,19.689c-4.093,-3.25 -12.272,-10.698 -14.468,-19.689l-2.482,1.877c2.703,12.366 16.95,21.934 16.95,21.934c0,0 14.244,-9.568 16.945,-21.934l-2.479,-1.877Z" style="fill:#f6a63b;fill-rule:nonzero;"/><path d="M109.266,115.747c-0.006,0.026 -0.016,0.159 -0.038,0.353l0.031,-0.461c0,0 -1.222,15.567 -8.562,29.956c-1.375,2.512 -12.113,21.02 -31.097,23.628c4.516,-0.033 43.698,-1.821 39.666,-53.476" style="fill:#ababac;fill-rule:nonzero;"/><path d="M76.829,2.355c0.064,-0.018 0.027,-0.009 -0.005,-0.001c-1.465,-0.299 -2.437,-0.408 -3.67,-0.193c-0.106,0.012 -0.201,0.011 -0.311,0.027l-0.022,0.037c-15.004,3.17 -12.971,41.975 -12.971,41.975l4.616,0c0,0 -0.998,-19.029 3.55,-31.537c0.916,-2.258 5.306,-11.417 13.869,-4.291c0,0 -0.597,-4.773 -5.056,-6.017" style="fill:#fff;fill-rule:nonzero;"/><path d="M96.22,24.972c0,0 2.663,-11.253 -7.291,-11.994l-3.686,0.686c0,0 0.682,9.375 -4.358,18.207c0,0 6.428,-6.21 8.233,-13.518l0.021,0c0,0 0.388,-2.906 3.295,-1.302c0,0 4.249,2.262 3.786,7.921" style="fill:#fff;fill-rule:nonzero;"/><path d="M97.919,29.598c0,0 -2.844,5.683 -4.67,9.532c0,0 3.196,-2.375 5.525,-6.406c0,0 2.793,-0.41 3.81,3.758c0,0 1.222,-6.473 -4.665,-6.884" style="fill:#fff;fill-rule:nonzero;"/><path d="M60.295,122.107c0,0 5.145,1.326 4.912,7.252c0,0 2.884,-7.016 -4.912,-7.252" style="fill:#100701;fill-rule:nonzero;"/><path d="M79.187,122.107c-7.797,0.236 -4.911,7.252 -4.911,7.252c-0.237,-5.926 4.911,-7.252 4.911,-7.252" style="fill:#100701;fill-rule:nonzero;"/><path d="M86.687,118.382c-7.888,0 -14.306,-6.418 -14.306,-14.306c0,-7.889 6.418,-14.309 14.306,-14.309c7.89,0 14.306,6.42 14.306,14.309c0,7.888 -6.416,14.306 -14.306,14.306m-48.201,-14.306c0,-7.889 6.416,-14.309 14.305,-14.309c7.892,0 14.309,6.42 14.309,14.309c0,7.888 -6.417,14.306 -14.309,14.306c-7.889,0 -14.305,-6.418 -14.305,-14.306m48.201,-16.942c-9.342,0 -16.94,7.6 -16.94,16.942c0,9.198 7.375,16.693 16.522,16.917c-4.833,11.211 -12.798,17.068 -16.529,19.306c-3.735,-2.238 -11.695,-8.095 -16.531,-19.306c9.149,-0.224 16.523,-7.719 16.523,-16.917c0,-9.342 -7.599,-16.942 -16.941,-16.942c-9.338,0 -16.937,7.6 -16.937,16.942c0,8.485 6.279,15.513 14.43,16.731c6.173,16.706 19.456,22.649 19.456,22.649c0,0 13.284,-5.943 19.455,-22.649c8.153,-1.218 14.432,-8.246 14.432,-16.731c0,-9.342 -7.599,-16.942 -16.94,-16.942" style="fill:#100701;fill-rule:nonzero;"/><path d="M55.129,104.517c-1.342,0 -2.428,-1.088 -2.428,-2.428c0,-0.797 0.391,-1.498 0.984,-1.942c-0.288,-0.06 -0.587,-0.096 -0.894,-0.096c-2.364,0 -4.282,1.918 -4.282,4.285c0,2.365 1.918,4.284 4.282,4.284c2.368,0 4.286,-1.919 4.286,-4.284c0,-0.249 -0.032,-0.489 -0.073,-0.726c-0.444,0.549 -1.114,0.907 -1.875,0.907" style="fill:#100701;fill-rule:nonzero;"/><path d="M88.984,104.517c-1.338,0 -2.423,-1.088 -2.423,-2.428c0,-0.797 0.39,-1.499 0.983,-1.942c-0.288,-0.06 -0.588,-0.096 -0.895,-0.096c-2.364,0 -4.283,1.918 -4.283,4.285c0,2.365 1.919,4.284 4.283,4.284c2.369,0 4.284,-1.919 4.284,-4.284c0,-0.248 -0.032,-0.487 -0.072,-0.724c-0.445,0.548 -1.115,0.905 -1.877,0.905" style="fill:#100701;fill-rule:nonzero;"/><path d="M69.164,175.653c0,0 -49.331,1.481 -44.505,-59.474c0,0 7.773,-70.421 44.505,-70.421c36.727,0 44.504,70.421 44.504,70.421c4.825,60.955 -44.504,59.474 -44.504,59.474m1.048,-170.124c2.191,-1.686 4.799,-2.012 8.04,-0.977c0.085,0.026 2.492,0.957 3.855,4.326c1.94,4.802 2.094,8.916 -1.222,22.993c4.006,-6.462 6.281,-11.831 6.521,-16.684c1.751,-0.698 3.64,-0.509 5.797,0.588c0.064,0.03 1.951,1.156 2.571,3.336c0.954,3.361 0.932,7.076 -2.525,20.019c1.864,-2.79 3.527,-5.439 4.723,-8.134c0.97,-0.13 2.036,-0.022 2.997,0.758c0.009,0.003 1.014,0.81 1.357,2.385c0.531,2.421 1.053,8.541 -7.516,20.143c-6.581,-8.053 -14.979,-13.57 -25.646,-13.57c-2.61,0 -5.083,0.339 -7.43,0.956c-0.21,-9.953 0.938,-30.328 8.478,-36.139m46.914,111.076c0,0 -4.178,-37.809 -20.556,-60.054c7.266,-9.406 10.388,-17.808 9.206,-23.2c-0.737,-3.372 -2.837,-4.63 -2.979,-4.705c-1.157,-0.735 -2.333,-1.182 -3.508,-1.383c0.753,-2.94 0.841,-6.026 -0.083,-9.486c-1.019,-3.821 -4.059,-5.46 -4.265,-5.549c-2.734,-1.391 -5.358,-1.742 -7.838,-1.082c-0.341,-1.649 -0.939,-3.254 -1.844,-4.838c-2.505,-4.381 -5.606,-5.472 -5.87,-5.537c-4.44,-1.423 -8.339,-0.874 -11.588,1.631c-10.362,7.987 -10.171,34.365 -9.976,40.603c-29.892,12.655 -36.626,73.6 -36.626,73.6c-5.2,65.69 47.965,64.093 47.965,64.093c0,0 53.163,1.597 47.962,-64.093" style="fill-rule:nonzero;"/></g></g></svg>